<?xml version="1.0" encoding="UTF-8" standalone="no"?> <svg id="Glyph" xmlns="http://www.w3.org/2000/svg" viewBox="0 0 64 64"><title>1</title><path d="M54,11.19H47.57a3.99984,3.99984,0,0,0-4.3913-3.98138A4.11472,4.11472,0,0,0,39.57,11.36035V13.19a4.00022,4.00022,0,0,0,3.17059,3.914,1.001,1.001,0,0,1-.32262,1.97517A6.00772,6.00772,0,0,1,37.57,13.19v-2H26.43a4.00118,4.00118,0,1,0-8,.17045l0,1.82955a4.00022,4.00022,0,0,0,3.1706,3.914,1.001,1.001,0,0,1-.32261,1.97517A6.00772,6.00772,0,0,1,16.43,13.19v-2H10a6.01119,6.01119,0,0,0-6,6v5.57H60V17.19A6.01119,6.01119,0,0,0,54,11.19Zm-33.57,0a2.00021,2.00021,0,0,1,4,.00009Zm21.14,0a2.00021,2.00021,0,0,1,4,.00009Z"/><path d="M4,50.81a6.00475,6.00475,0,0,0,6,6H54a6.00475,6.00475,0,0,0,6-6V24.76H4ZM48,28.79a3.00019,3.00019,0,0,1-.00009,6A3.00019,3.00019,0,0,1,48,28.79Zm0,9a3.00019,3.00019,0,0,1-.00009,6A3.00019,3.00019,0,0,1,48,37.79Zm0,9a3.00019,3.00019,0,0,1-.00009,6A3.00019,3.00019,0,0,1,48,46.79Zm-16-18a3.00019,3.00019,0,0,1-.00009,6A3.00019,3.00019,0,0,1,32,28.79Zm0,9a3.00019,3.00019,0,0,1-.00009,6A3.00019,3.00019,0,0,1,32,37.79Zm0,9a3.00019,3.00019,0,0,1-.00009,6A3.00019,3.00019,0,0,1,32,46.79Zm-16-18a3.00019,3.00019,0,0,1-.00009,6A3.00019,3.00019,0,0,1,16,28.79Zm0,9a3.00019,3.00019,0,0,1-.00009,6A3.00019,3.00019,0,0,1,16,37.79Zm0,9a3.00019,3.00019,0,0,1-.00009,6A3.00019,3.00019,0,0,1,16,46.79Z"/><path d="M16,32.79a1.0001,1.0001,0,0,0,0-2A1.0001,1.0001,0,0,0,16,32.79Z"/><path d="M16,41.79a1.0001,1.0001,0,0,0,0-2A1.0001,1.0001,0,0,0,16,41.79Z"/><path d="M16,50.79a1.0001,1.0001,0,0,0,0-2A1.0001,1.0001,0,0,0,16,50.79Z"/><path d="M32,50.79a1.0001,1.0001,0,0,0,0-2A1.0001,1.0001,0,0,0,32,50.79Z"/><path d="M32,41.79a1.0001,1.0001,0,0,0,0-2A1.0001,1.0001,0,0,0,32,41.79Z"/><path d="M32,32.79a1.0001,1.0001,0,0,0,0-2A1.0001,1.0001,0,0,0,32,32.79Z"/><path d="M48,32.79a1.0001,1.0001,0,0,0,0-2A1.0001,1.0001,0,0,0,48,32.79Z"/><path d="M48,41.79a1.0001,1.0001,0,0,0,0-2A1.0001,1.0001,0,0,0,48,41.79Z"/><path d="M48,50.79a1.0001,1.0001,0,0,0,0-2A1.0001,1.0001,0,0,0,48,50.79Z"/></svg>