<?xml version="1.0" encoding="utf-8"?>
<!-- Generator: Adobe Illustrator 22.0.0, SVG Export Plug-In . SVG Version: 6.00 Build 0)  -->
<svg version="1.1" id="Layer_1" xmlns="http://www.w3.org/2000/svg" xmlns:xlink="http://www.w3.org/1999/xlink" x="0px" y="0px"
	 viewBox="0 0 32 32" style="enable-background:new 0 0 32 32;" xml:space="preserve">
<g>
	<path d="M6,7.6h20c0.6,0,1-0.4,1-1s-0.4-1-1-1h-5v-3c0-0.6-0.4-1-1-1h-8c-0.6,0-1,0.4-1,1v3H6c-0.6,0-1,0.4-1,1S5.4,7.6,6,7.6z
		 M13,3.6h6v2h-6V3.6z"/>
	<path d="M6.5,8.9C6.2,8.9,5.9,9,5.8,9.2S5.5,9.7,5.5,10l2.4,19.5c0.1,0.5,0.5,0.9,1,0.9h14.3c0.5,0,0.9-0.4,1-0.9L26.5,10
		c0-0.3-0.1-0.6-0.2-0.8s-0.5-0.3-0.7-0.3H6.5z M15,23.6c0,0.6-0.4,1-1,1s-1-0.4-1-1v-8c0-0.6,0.4-1,1-1s1,0.4,1,1V23.6z M19,23.6
		c0,0.6-0.4,1-1,1s-1-0.4-1-1v-8c0-0.6,0.4-1,1-1s1,0.4,1,1V23.6z"/>
</g>
</svg>
